var fontJSON=
{"glyphs":{"0":{"ha":903,"x_min":39,"x_max":867,"o":"m 281 1057 q 739 1007 688 1083 q 854 751 842 904 q 815 140 867 217 q 625 -12 778 39 l 268 -12 q 51 281 89 51 q 89 904 39 803 q 281 1057 178 1057 m 382 101 q 739 408 675 51 q 510 943 778 842 q 165 638 242 994 q 217 229 140 382 q 382 101 268 153 m 382 842 q 561 803 547 854 q 625 638 611 751 l 611 332 q 522 204 574 217 q 281 394 293 165 q 382 842 254 778 z "},"1":{"ha":736,"x_min":39,"x_max":701,"o":"m 229 1044 l 586 1044 l 586 318 l 701 318 l 701 0 l 101 0 l 101 318 l 242 318 l 242 561 l 39 561 l 39 892 l 229 1044 m 153 675 l 242 726 l 357 726 l 357 204 l 217 204 l 217 115 l 586 115 l 586 204 l 471 217 l 471 931 l 344 931 l 153 778 l 153 675 z "},"2":{"ha":864,"x_min":0,"x_max":828,"o":"m 254 1057 l 638 1057 q 815 892 803 1007 l 815 561 l 751 446 l 828 433 l 828 0 l 51 0 l 51 369 l 293 586 l 64 586 q 254 1057 0 1007 m 178 701 l 281 701 q 369 842 293 815 q 574 790 574 867 q 547 599 586 611 q 165 242 535 547 l 165 115 l 714 115 l 714 332 l 625 332 l 625 204 l 382 204 l 382 318 l 625 547 q 522 943 828 815 q 293 918 382 956 q 178 778 217 854 l 178 701 z "},"3":{"ha":864,"x_min":51,"x_max":854,"o":"m 254 1057 l 638 1057 q 815 892 803 1007 l 803 535 q 815 115 854 433 q 638 -12 751 0 l 254 -12 q 51 165 76 25 l 51 458 l 281 458 l 281 599 l 51 599 l 51 854 q 254 1057 76 1032 m 165 714 l 281 714 q 357 842 306 828 q 574 790 547 867 q 547 611 586 625 q 408 574 458 547 l 394 497 q 586 421 510 497 q 522 204 611 229 q 281 344 281 165 l 165 344 q 369 101 165 153 q 714 268 638 76 l 701 421 l 650 471 l 650 599 q 675 842 739 688 q 522 943 650 879 q 165 739 229 968 l 165 714 z "},"4":{"ha":919,"x_min":64,"x_max":892,"o":"m 408 1044 l 778 1044 l 778 535 l 892 535 l 892 0 l 306 0 l 306 217 l 64 217 l 64 586 l 408 1044 m 421 115 l 778 115 l 778 204 l 663 217 l 663 332 l 778 332 l 778 421 l 663 433 l 663 931 l 510 918 q 178 471 229 497 l 178 332 l 561 332 l 561 204 l 421 204 l 421 115 m 446 688 l 561 688 l 561 421 l 332 421 l 332 535 l 446 688 z "},"5":{"ha":864,"x_min":51,"x_max":828,"o":"m 76 1044 l 790 1044 l 790 726 l 701 726 q 828 547 815 650 l 828 192 q 625 -12 803 39 q 51 153 76 -64 l 76 1044 m 178 446 l 281 446 q 510 535 318 561 q 599 433 611 458 q 510 204 611 268 q 281 332 281 165 l 165 332 q 357 101 153 178 q 714 306 625 51 q 522 638 751 535 l 281 625 l 293 842 l 675 842 l 675 931 l 192 931 l 178 764 l 178 446 z "},"6":{"ha":864,"x_min":-11,"x_max":854,"o":"m 293 1057 l 701 1044 q 815 918 778 1007 l 803 611 q 815 140 854 485 q 638 -12 751 13 l 268 -12 q 51 268 39 76 q 293 1057 -11 1044 m 382 101 q 714 306 663 76 q 535 638 751 561 l 306 625 q 394 842 293 815 q 599 739 586 892 l 701 739 q 535 943 701 879 q 165 611 229 981 q 382 101 115 192 m 369 535 q 599 433 561 586 q 522 204 611 268 l 357 204 l 293 281 q 369 535 254 510 z "},"7":{"ha":864,"x_min":39,"x_max":842,"o":"m 39 1044 l 842 1044 l 842 701 q 522 0 611 254 l 165 0 l 165 242 l 318 586 l 39 586 l 39 1044 m 153 701 l 242 701 l 242 842 l 574 842 l 561 701 q 281 115 497 625 l 408 115 q 726 815 663 764 l 726 931 l 153 931 l 153 701 z "},"8":{"ha":908,"x_min":64,"x_max":867,"o":"m 254 1057 l 688 1044 q 828 904 778 1007 l 815 547 q 828 115 867 458 q 638 -12 714 -25 q 64 153 89 -64 q 64 904 89 510 q 254 1057 101 1032 m 369 101 q 611 128 510 89 q 726 281 688 178 l 714 433 l 663 485 q 714 675 638 611 q 522 943 751 854 q 281 918 382 956 q 178 790 217 879 q 217 611 165 663 q 178 394 254 471 q 369 101 140 204 m 382 854 q 586 790 510 879 q 497 574 625 599 q 293 638 369 547 q 382 854 254 828 m 394 497 q 599 433 522 522 q 510 192 611 178 q 306 268 332 178 q 394 497 293 510 z "},"9":{"ha":864,"x_min":13,"x_max":892,"o":"m 242 1057 l 611 1057 q 828 778 842 968 q 586 -12 892 25 l 178 0 q 51 153 89 25 l 64 433 q 51 904 13 561 q 242 1057 115 1032 m 332 408 l 574 421 q 485 204 586 254 l 318 204 l 268 306 l 165 306 q 332 101 192 140 q 714 433 663 64 q 663 828 739 701 q 497 943 586 904 q 153 739 254 994 q 332 408 115 485 m 344 842 q 586 764 547 879 l 586 586 l 510 510 q 268 611 306 458 q 344 842 254 778 z "}," ":{"ha":375,"x_min":0,"x_max":0,"o":""},"ˇ":{"ha":0,"x_min":0,"x_max":0,"o":""},"ı":{"ha":0,"x_min":0,"x_max":0,"o":""},"!":{"ha":449,"x_min":51,"x_max":408,"o":"m 51 1044 l 408 1044 q 408 0 382 344 l 64 0 q 51 1044 89 318 m 192 306 l 281 306 l 293 638 l 293 931 l 165 931 l 192 306 m 178 115 l 293 115 l 293 229 l 178 229 l 178 115 z "},"\"":{"ha":594,"x_min":51,"x_max":574,"o":"m 51 1044 l 561 1044 q 535 547 574 764 l 64 547 l 51 675 l 51 1044 m 178 663 l 268 663 l 268 931 l 165 931 l 178 663 m 332 663 l 421 663 l 446 854 l 446 931 l 332 931 l 332 663 z "},"#":{"ha":585,"x_min":0,"x_max":0,"o":""},"$":{"ha":917,"x_min":51,"x_max":892,"o":"m 638 1083 l 650 1044 l 842 1032 l 828 561 q 854 115 892 547 q 638 -25 751 -25 l 638 -128 l 318 -128 l 318 -25 q 64 0 318 13 l 64 458 l 115 458 l 51 574 l 51 892 l 101 981 q 328 1056 101 1007 l 322 1178 l 639 1178 l 638 1083 m 178 344 l 178 115 l 433 101 l 433 -12 l 522 -12 l 522 101 q 751 281 688 115 l 739 433 q 522 574 663 522 l 522 828 l 625 828 l 638 714 l 726 701 l 726 931 l 535 931 l 522 1057 l 433 1057 l 433 943 q 165 778 229 918 q 192 611 153 675 q 433 485 229 561 l 433 229 q 268 344 306 178 l 178 344 m 318 828 l 433 828 l 433 638 q 281 675 281 625 q 318 828 268 828 m 522 382 l 638 382 l 638 242 l 522 242 l 522 382 z "},"%":{"ha":1322,"x_min":0,"x_max":0,"o":""},"&":{"ha":1154,"x_min":51,"x_max":1108,"o":"m 268 1057 l 638 1057 l 751 1007 q 803 714 803 994 l 1096 714 l 1096 394 l 981 394 l 968 332 l 1108 318 l 1108 0 l 701 0 l 638 -25 l 254 -25 q 51 153 76 13 l 51 510 l 115 611 l 115 931 q 268 1057 165 1044 m 369 89 l 522 89 q 650 153 625 115 l 778 153 l 815 115 l 994 115 l 994 204 l 867 204 l 828 242 q 867 510 815 306 l 981 510 l 981 599 l 663 599 q 663 854 688 803 q 522 943 599 918 q 229 815 332 981 q 281 650 204 714 l 281 535 q 178 229 128 433 q 369 89 165 192 m 382 854 l 535 854 l 561 828 q 522 663 574 663 q 357 714 357 638 l 357 828 l 382 854 m 332 458 l 471 458 l 599 332 q 510 178 638 178 q 293 254 344 165 q 332 458 281 433 z "},"'":{"ha":279,"x_min":0,"x_max":0,"o":""},"(":{"ha":574,"x_min":25,"x_max":547,"o":"m 217 1044 l 547 1044 l 547 803 q 382 369 369 561 q 547 39 458 115 l 547 -204 l 217 -204 q 39 204 76 -25 q 64 751 25 663 l 140 931 l 217 1044 m 332 -89 l 433 -89 q 433 943 76 408 l 332 931 q 153 522 229 778 q 192 165 140 293 l 332 -89 z "},")":{"ha":589,"x_min":51,"x_max":574,"o":"m 51 1044 l 382 1044 q 561 638 522 867 q 535 89 574 178 l 458 -89 l 382 -204 l 51 -204 l 51 39 q 217 485 229 254 q 51 803 140 714 l 51 1044 m 165 -89 l 268 -89 q 446 318 369 64 q 394 714 471 535 l 268 931 l 165 931 q 165 -101 522 433 l 165 -89 z "},"*":{"ha":293,"x_min":8,"x_max":285,"o":"m 285 888 l 254 835 l 176 878 l 176 785 l 117 785 l 117 878 l 39 835 l 8 888 l 85 929 l 8 971 l 39 1024 l 117 979 l 117 1069 l 176 1069 l 176 979 l 254 1024 l 285 971 l 208 929 l 285 888 z "},"+":{"ha":585,"x_min":0,"x_max":0,"o":""},",":{"ha":450,"x_min":51,"x_max":408,"o":"m 51 357 l 408 357 l 408 -12 l 357 -165 l 51 -165 l 51 357 m 165 -51 l 242 -51 l 293 101 l 293 242 l 165 242 q 165 -64 192 0 l 165 -51 z "},"-":{"ha":585,"x_min":39,"x_max":547,"o":"m 39 574 l 547 574 l 547 254 l 39 254 l 39 574 m 39 574 l 547 574 l 547 254 l 39 254 l 39 574 m 153 369 l 433 369 l 433 458 l 153 458 l 153 369 m 547 574 l 547 254 l 39 254 l 39 574 l 547 574 z "},".":{"ha":463,"x_min":64,"x_max":421,"o":"m 64 357 l 421 357 l 421 0 l 64 0 l 64 357 m 178 115 l 306 115 l 306 242 l 178 242 l 178 115 z "},"/":{"ha":781,"x_min":0,"x_max":0,"o":""},":":{"ha":447,"x_min":60,"x_max":394,"o":"m 60 742 l 394 742 l 394 407 l 60 407 l 60 742 m 168 515 l 288 515 l 288 635 l 168 635 l 168 515 m 60 324 l 394 324 l 394 -12 l 60 -12 l 60 324 m 168 96 l 288 96 l 288 215 l 168 215 l 168 96 z "},";":{"ha":422,"x_min":47,"x_max":383,"o":"m 47 742 l 383 742 l 383 407 l 47 407 l 47 742 m 156 515 l 275 515 l 275 635 l 156 635 l 156 515 m 47 324 l 383 324 l 383 -24 l 335 -168 l 47 -168 l 47 324 m 156 -60 l 228 -60 l 275 83 l 275 215 l 156 215 q 156 -72 179 -12 l 156 -60 z "},"<":{"ha":0,"x_min":0,"x_max":0,"o":""},"=":{"ha":585,"x_min":0,"x_max":0,"o":""},">":{"ha":0,"x_min":0,"x_max":0,"o":""},"?":{"ha":822,"x_min":39,"x_max":790,"o":"m 229 1057 l 611 1057 q 790 892 778 1007 l 778 522 l 675 394 q 561 0 522 357 l 217 0 l 217 485 l 268 611 l 51 611 q 89 981 39 931 q 229 1057 153 1044 m 332 344 l 446 344 l 471 446 q 675 675 650 586 q 497 943 714 854 q 165 778 217 968 l 165 726 l 281 726 q 332 842 268 778 q 547 803 547 854 l 547 638 l 369 471 l 332 344 m 332 115 l 446 115 l 446 229 l 332 229 l 332 115 z "},"@":{"ha":0,"x_min":0,"x_max":0,"o":""},"A":{"ha":1271,"x_min":51,"x_max":1211,"o":"m 446 1044 l 815 1044 l 1108 344 q 1211 318 1135 306 l 1211 0 l 650 0 l 650 268 l 599 268 l 599 0 l 51 0 l 51 318 q 165 369 153 293 l 446 1044 m 165 115 l 485 115 l 485 204 l 408 204 q 433 382 394 318 l 815 382 l 842 318 l 842 204 l 764 204 l 764 115 l 1096 115 l 1096 204 q 968 268 981 178 l 701 892 l 701 931 l 561 931 l 268 217 l 165 204 l 165 115 m 561 701 l 688 701 l 726 599 l 726 471 l 522 471 l 522 611 l 561 701 z "},"B":{"ha":1053,"x_min":51,"x_max":1057,"o":"m 51 1044 l 803 1044 q 968 892 956 994 l 968 561 l 994 510 q 803 0 1057 25 l 51 0 l 51 318 l 178 318 l 178 726 l 51 726 l 51 1044 m 165 115 l 739 128 q 879 281 879 229 l 867 433 l 815 485 l 815 611 q 828 842 892 675 l 688 931 l 165 931 l 165 842 l 293 828 l 293 204 l 165 204 l 165 115 m 408 842 q 726 790 701 867 q 625 574 778 599 l 408 574 l 408 842 m 408 485 q 751 421 714 510 q 650 204 803 229 l 408 204 l 408 485 z "},"C":{"ha":1100,"x_min":64,"x_max":1044,"o":"m 369 1057 l 1044 1044 l 1044 561 l 714 561 q 547 714 663 714 q 421 547 446 638 q 547 332 382 497 l 611 332 q 701 485 675 382 l 1044 485 l 1044 217 q 778 -12 968 0 l 382 -12 q 64 318 128 25 l 64 726 q 369 1057 140 1044 m 497 101 q 790 140 663 89 q 931 332 879 204 l 931 394 l 828 394 q 522 192 726 140 q 293 433 306 254 q 510 854 268 803 q 842 638 815 879 l 931 638 l 931 931 l 714 918 q 178 611 306 1044 q 497 101 153 192 z "},"D":{"ha":1153,"x_min":64,"x_max":1108,"o":"m 64 1044 l 778 1044 q 1108 726 1071 994 l 1108 318 q 1007 101 1108 242 q 778 0 943 25 l 64 0 l 64 318 l 192 318 l 192 726 l 64 726 l 64 1044 m 178 115 l 663 115 l 803 153 q 994 433 943 242 q 663 931 1032 854 l 178 931 l 178 842 l 306 828 l 306 204 l 178 204 l 178 115 m 535 332 q 751 510 663 344 q 574 714 739 625 l 535 714 l 535 332 z "},"E":{"ha":1042,"x_min":51,"x_max":994,"o":"m 51 1044 l 994 1044 l 994 574 l 790 574 l 790 485 l 994 485 l 994 0 l 51 0 l 51 318 l 178 318 l 178 726 l 51 726 l 51 1044 m 165 115 l 879 115 l 879 369 l 790 369 l 790 204 l 408 204 l 408 485 l 586 485 l 586 369 l 675 369 l 675 688 l 586 688 l 586 574 l 408 574 l 408 842 l 790 842 l 790 688 l 879 688 l 879 931 l 165 931 l 165 842 l 293 828 l 293 204 l 165 204 l 165 115 z "},"F":{"ha":1017,"x_min":64,"x_max":981,"o":"m 981 1044 l 981 561 l 790 561 l 790 242 l 675 242 l 675 0 l 64 0 l 64 318 l 192 318 l 192 726 l 64 726 l 64 1044 l 981 1044 m 178 115 l 561 115 l 561 204 l 421 204 l 421 471 l 586 471 l 586 357 l 675 357 l 675 675 l 586 675 l 586 561 l 421 561 l 421 842 l 778 842 l 778 675 l 867 675 l 867 931 l 178 931 l 178 842 l 306 828 l 306 204 l 178 204 l 178 115 z "},"G":{"ha":1214,"x_min":-24,"x_max":1160,"o":"m 369 1057 l 1032 1044 l 1032 586 l 1160 586 l 1160 318 l 1057 318 l 1044 0 l 751 -12 q 204 51 318 -39 q 51 318 76 153 q 369 1057 -24 1019 m 281 446 q 497 854 281 828 q 803 739 714 879 l 918 739 l 918 931 l 701 918 q 318 879 458 981 q 165 611 229 803 q 485 101 140 192 l 638 101 l 714 140 l 931 115 l 931 433 l 1044 433 l 1044 522 l 688 522 l 688 433 l 803 433 q 638 192 854 254 q 281 446 306 165 z "},"H":{"ha":1246,"x_min":64,"x_max":1185,"o":"m 1185 1044 l 1185 726 l 1057 726 l 1057 318 l 1185 318 l 1185 0 l 64 0 l 64 318 l 192 318 l 192 726 l 64 726 l 64 1044 l 1185 1044 m 178 115 l 535 115 l 535 204 l 421 204 l 421 485 l 828 485 l 828 204 l 714 204 l 714 115 l 1071 115 l 1071 204 l 943 217 l 943 842 l 1071 842 l 1071 931 l 714 931 l 714 842 l 828 842 l 828 574 l 421 574 l 421 842 l 535 842 l 535 931 l 178 931 l 178 842 l 306 828 l 306 204 l 178 204 l 178 115 z "},"I":{"ha":699,"x_min":64,"x_max":650,"o":"m 64 1044 l 650 1044 l 650 726 l 535 726 l 535 318 l 650 318 l 650 0 l 64 0 l 64 318 l 192 318 l 192 726 l 64 726 l 64 1044 m 178 115 l 535 115 l 535 204 l 421 217 l 421 842 l 535 842 l 535 931 l 178 931 l 178 842 l 306 828 l 306 204 l 178 204 l 178 115 z "},"J":{"ha":893,"x_min":51,"x_max":854,"o":"m 293 1044 l 854 1044 l 854 726 l 751 714 l 739 115 q 586 -12 688 0 l 165 0 q 51 153 64 51 l 51 485 l 408 485 l 408 726 l 293 726 l 293 1044 m 165 369 q 332 101 140 165 q 625 229 599 89 l 638 842 l 739 842 l 739 931 l 408 931 l 408 842 l 522 842 l 522 281 l 471 204 l 332 204 q 268 369 281 229 l 165 369 z "},"K":{"ha":1121,"x_min":64,"x_max":1083,"o":"m 64 1044 l 1044 1044 l 1044 726 l 994 726 l 778 535 l 981 318 l 1083 318 l 1083 0 l 64 0 l 64 318 l 192 318 l 192 726 l 64 726 l 64 1044 m 178 115 l 968 115 l 968 204 q 815 254 842 192 l 599 485 l 611 611 l 867 842 l 931 842 l 931 931 l 178 931 l 178 842 l 306 828 l 306 204 l 178 204 l 178 115 m 421 842 l 625 842 l 625 726 l 535 650 l 421 650 l 421 842 m 421 433 l 535 433 l 638 318 l 638 204 l 421 204 l 421 433 z "},"L":{"ha":1000,"x_min":64,"x_max":968,"o":"m 64 1044 l 675 1044 l 675 726 l 535 726 l 535 318 l 650 318 l 650 510 l 968 510 l 968 0 l 64 0 l 64 318 l 192 318 l 192 726 l 64 726 l 64 1044 m 178 115 l 854 115 l 854 394 l 764 394 l 764 204 l 421 204 l 421 842 l 561 842 l 561 931 l 178 931 l 178 842 l 306 828 l 306 204 l 178 204 l 178 115 z "},"M":{"ha":1425,"x_min":51,"x_max":1389,"o":"m 51 1044 l 599 1044 q 726 714 638 854 l 828 1044 l 1389 1044 l 1389 726 l 1261 726 l 1261 318 l 1389 318 l 1389 0 l 51 0 l 51 318 l 178 318 l 178 726 l 51 726 l 51 1044 m 165 115 l 497 115 l 497 204 l 382 204 l 382 586 l 497 586 q 586 281 611 306 l 611 268 l 650 128 l 764 115 l 918 574 l 1032 574 l 1032 204 l 918 204 l 918 115 l 1274 115 l 1274 204 l 1147 217 l 1147 842 l 1274 842 l 1274 931 l 943 931 l 778 421 l 650 421 l 485 918 l 165 931 l 165 842 l 293 828 l 293 204 l 165 204 l 165 115 z "},"N":{"ha":1210,"x_min":51,"x_max":1172,"o":"m 51 1032 l 561 1032 l 599 968 l 599 1032 l 1172 1032 l 1172 714 l 1057 714 l 1057 -12 l 688 -12 l 625 76 l 611 -12 l 51 -12 l 51 306 l 178 306 l 178 714 l 51 714 l 51 1032 m 165 101 l 510 101 l 510 192 l 382 192 l 382 625 l 497 625 l 803 115 l 943 101 l 943 828 l 1057 828 l 1057 918 l 714 918 l 714 828 l 854 828 l 854 421 l 726 433 l 433 918 l 165 918 l 165 828 l 293 815 l 293 192 l 165 192 l 165 101 z "},"O":{"ha":1181,"x_min":64,"x_max":1147,"o":"m 394 1044 l 790 1044 q 1121 714 1057 1007 q 1071 153 1147 229 q 790 -25 981 13 q 242 25 306 -51 q 64 306 101 115 l 64 714 q 394 1044 101 981 m 510 89 q 1007 421 904 51 q 675 931 1044 842 q 178 599 281 968 q 510 89 140 178 m 522 842 q 892 599 867 854 q 663 178 931 254 q 293 433 344 153 q 522 842 254 790 z "},"P":{"ha":999,"x_min":51,"x_max":956,"o":"m 51 1032 l 815 1019 q 956 854 931 968 l 943 446 q 663 293 879 293 l 663 -12 l 51 -12 l 51 306 l 178 306 l 178 714 l 51 714 l 51 1032 m 165 101 l 547 101 l 547 192 l 408 192 l 408 421 q 828 574 764 369 q 650 918 892 842 l 165 918 l 165 828 l 293 815 l 293 192 l 165 192 l 165 101 m 408 828 q 726 726 726 854 q 611 510 751 561 l 408 510 l 408 828 z "},"Q":{"ha":1197,"x_min":51,"x_max":1160,"o":"m 382 1044 l 778 1044 q 1096 714 1032 1007 l 1083 306 l 1160 293 l 1160 -12 l 751 -25 l 357 -25 q 51 306 76 64 l 51 714 q 382 1044 115 1007 m 471 89 l 1044 101 l 1044 192 l 931 192 q 981 446 904 293 q 663 931 1007 828 q 165 599 268 968 q 242 229 128 446 l 318 153 l 471 89 m 510 842 q 867 586 815 867 q 638 178 879 229 q 281 433 332 153 q 510 842 268 790 z "},"R":{"ha":1115,"x_min":64,"x_max":1071,"o":"m 64 1032 l 790 1032 q 968 879 956 981 l 968 522 l 931 433 l 981 306 l 1071 306 l 1071 -12 q 64 -12 739 13 l 64 306 l 192 306 l 192 714 l 64 714 l 64 1032 m 178 101 l 535 101 l 535 192 l 421 192 l 421 446 l 650 433 q 790 101 688 421 l 956 101 l 956 192 l 867 192 l 790 408 l 790 535 q 842 803 867 611 q 675 918 790 879 l 178 918 l 178 828 l 306 815 l 306 192 l 178 192 l 178 101 m 421 828 q 726 764 675 854 q 625 535 778 547 l 421 535 l 421 828 z "},"S":{"ha":924,"x_min":64,"x_max":943,"o":"m 254 1044 l 854 1032 l 854 547 l 879 497 q 688 -25 943 25 l 64 -12 q 64 879 89 611 q 254 1044 128 1032 m 178 382 l 178 101 l 408 89 l 574 89 q 764 268 714 128 q 726 458 778 382 l 611 535 q 306 650 332 611 q 394 842 268 803 q 650 650 638 879 l 739 650 l 739 918 l 522 931 q 178 764 254 956 q 217 574 165 650 l 344 497 q 638 382 638 421 q 535 178 688 204 q 268 382 281 153 l 178 382 z "},"T":{"ha":1053,"x_min":51,"x_max":1007,"o":"m 51 1032 l 1007 1032 l 1007 535 l 701 535 l 701 306 l 842 306 l 842 -12 l 217 -12 l 217 306 l 357 306 l 357 535 l 51 535 l 51 1032 m 332 101 l 726 101 l 726 192 l 586 204 l 586 828 l 803 828 l 803 650 l 892 650 l 892 918 l 165 918 l 165 650 l 254 650 l 254 828 l 471 828 l 471 192 l 332 192 l 332 101 z "},"U":{"ha":1178,"x_min":51,"x_max":1147,"o":"m 51 1044 l 1147 1044 l 1147 726 l 1032 714 l 1032 229 q 790 -12 994 39 l 357 0 q 178 165 242 51 l 165 714 l 51 726 l 51 1044 m 522 101 q 918 842 1044 39 l 1032 842 l 1032 931 l 688 931 l 688 842 l 828 842 l 828 357 q 675 192 778 204 q 394 344 458 165 l 394 842 l 522 842 l 522 931 l 165 931 l 165 842 l 281 842 l 293 281 q 522 101 382 128 z "},"V":{"ha":1201,"x_min":64,"x_max":1160,"o":"m 64 1044 l 1160 1044 l 1160 726 q 1057 663 1083 751 l 790 0 l 421 13 l 140 714 l 64 726 l 64 1044 m 547 115 l 675 115 l 968 842 l 1044 842 l 1044 931 l 726 931 l 726 842 l 815 842 l 815 714 l 675 369 l 547 369 l 408 726 l 408 842 l 497 842 l 497 931 l 178 931 l 178 842 l 254 842 l 547 115 z "},"W":{"ha":1506,"x_min":39,"x_max":1478,"o":"m 39 1044 l 1478 1044 l 1478 726 l 1401 714 l 1224 0 l 854 0 l 751 318 l 675 0 l 281 13 l 115 714 l 39 726 l 39 1044 m 357 714 l 357 842 l 458 842 l 458 931 l 153 931 l 153 842 l 229 842 l 408 115 l 561 115 l 701 650 l 815 650 l 956 140 q 1121 128 1007 89 l 1288 842 l 1364 842 l 1364 931 l 1071 931 l 1071 842 l 1172 842 q 1096 433 1211 815 l 981 433 l 854 904 q 688 931 854 943 l 547 433 l 433 433 l 357 714 z "},"X":{"ha":1203,"x_min":64,"x_max":1147,"o":"m 89 1044 l 1121 1044 l 1121 726 l 1032 726 l 879 535 l 1057 318 l 1147 318 l 1147 0 l 64 0 l 64 318 q 165 344 165 306 l 332 547 l 192 726 l 89 726 l 89 1044 m 178 115 l 522 115 l 522 204 l 471 204 l 471 318 l 547 408 l 663 408 l 739 318 l 739 204 l 688 204 l 688 115 l 1032 115 l 1032 204 l 931 217 l 714 485 q 739 638 701 638 l 904 842 l 1007 842 l 1007 931 l 675 931 l 675 842 l 701 828 l 701 714 l 675 688 q 522 714 522 675 l 522 842 l 547 842 l 547 931 l 204 931 l 204 842 l 318 828 l 497 611 l 497 485 l 268 204 l 178 204 l 178 115 z "},"Y":{"ha":1094,"x_min":39,"x_max":1071,"o":"m 1071 1044 l 1071 726 q 981 701 981 739 l 726 318 l 854 318 l 854 0 l 242 0 l 242 318 l 382 344 l 115 726 l 39 739 l 39 1044 l 1071 1044 m 357 115 l 739 115 l 739 204 l 611 204 l 625 485 l 879 842 l 956 842 l 956 931 l 650 931 l 650 842 l 688 842 l 688 726 l 625 625 l 497 625 l 421 726 l 421 842 l 471 842 l 471 931 l 153 931 l 153 842 l 229 842 l 497 446 l 497 204 l 357 204 l 357 115 z "},"Z":{"ha":996,"x_min":51,"x_max":943,"o":"m 51 1044 l 931 1044 l 931 701 l 739 485 l 943 485 l 943 0 l 51 0 l 51 357 l 242 574 l 51 574 l 51 1044 m 165 688 l 268 688 l 268 842 l 611 842 l 611 726 l 165 229 l 165 115 l 828 115 l 828 369 l 739 369 l 739 204 l 369 204 l 369 318 l 815 828 l 815 931 l 165 931 l 165 688 z "},"[":{"ha":0,"x_min":0,"x_max":0,"o":""},"\\":{"ha":0,"x_min":0,"x_max":0,"o":""},"]":{"ha":0,"x_min":0,"x_max":0,"o":""},"^":{"ha":0,"x_min":0,"x_max":0,"o":""},"_":{"ha":444,"x_min":0,"x_max":0,"o":""},"`":{"ha":0,"x_min":0,"x_max":0,"o":""},"a":{"ha":932,"x_min":25,"x_max":892,"o":"m 242 815 l 625 815 q 778 714 751 790 l 790 318 l 892 306 l 892 0 l 561 -12 l 153 0 q 51 115 51 51 l 51 446 l 76 497 q 242 815 25 778 m 306 101 l 778 115 l 778 192 l 675 192 l 663 599 q 510 701 663 638 q 192 574 281 739 q 242 510 165 522 l 242 408 q 178 192 115 332 q 306 101 165 178 m 369 611 q 561 574 522 625 l 561 458 l 306 458 q 369 611 281 611 m 382 382 l 561 382 q 485 204 599 242 l 293 217 q 382 382 254 382 z "},"b":{"ha":1011,"x_min":51,"x_max":968,"o":"m 51 1044 l 485 1044 l 497 815 q 968 599 931 867 l 956 153 q 764 -12 892 0 l 51 0 l 51 306 l 153 306 l 153 739 l 51 739 l 51 1044 m 522 101 q 854 318 778 76 q 650 701 904 599 l 369 688 l 369 931 l 165 931 l 165 854 l 268 854 l 268 192 l 165 192 l 165 115 l 522 101 m 497 611 q 739 458 701 638 q 611 192 751 217 q 369 344 408 165 q 497 611 357 586 z "},"c":{"ha":875,"x_min":0,"x_max":828,"o":"m 268 815 l 828 803 l 828 140 q 650 -12 790 13 l 281 -12 q 51 217 89 25 q 268 815 0 803 m 394 101 l 574 115 q 714 254 663 153 l 714 306 l 611 306 q 421 192 611 178 q 281 344 318 217 q 408 611 268 586 q 625 471 611 625 l 714 471 l 714 688 l 510 701 q 165 471 242 739 q 394 101 153 165 z "},"d":{"ha":1010,"x_min":51,"x_max":968,"o":"m 433 1044 l 867 1044 l 867 306 l 968 306 l 968 0 l 625 -12 l 268 -12 q 51 204 89 13 l 51 586 l 101 714 q 421 815 204 842 l 433 1044 m 268 344 q 408 611 254 561 q 663 458 611 638 q 522 192 675 242 q 268 344 318 165 m 165 471 q 229 178 140 332 l 382 101 l 650 128 l 854 115 l 854 192 l 751 204 l 751 931 l 547 931 l 547 854 l 650 854 l 650 688 q 281 663 332 726 q 165 471 204 599 z "},"e":{"ha":913,"x_min":-11,"x_max":867,"o":"m 281 815 q 751 778 701 828 q 867 561 854 726 l 854 140 q 663 -12 790 13 l 281 -12 q 51 217 89 25 q 281 815 -11 803 m 394 101 q 751 369 739 76 q 535 701 751 650 q 165 471 254 739 q 394 101 153 165 m 408 611 q 599 574 561 625 l 599 446 l 332 446 q 408 611 293 586 m 318 369 l 638 369 q 535 192 688 229 q 318 242 344 192 l 318 369 z "},"f":{"ha":736,"x_min":51,"x_max":701,"o":"m 306 1057 l 701 1044 l 701 739 l 638 739 l 638 497 l 497 497 l 497 306 l 625 306 l 625 0 l 64 0 l 64 306 l 165 306 l 165 497 l 51 497 l 51 803 l 153 803 q 306 1057 153 1032 m 178 115 l 510 115 l 510 192 l 382 192 l 382 611 l 522 611 l 522 688 l 382 688 q 446 867 357 828 l 586 854 l 574 943 q 281 688 281 994 l 165 688 l 165 611 l 281 611 l 281 192 l 178 192 l 178 115 z "},"g":{"ha":1007,"x_min":64,"x_max":981,"o":"m 268 815 l 981 803 l 981 497 l 879 485 l 867 -76 q 675 -217 803 -217 q 140 -165 178 -242 l 101 -115 l 101 128 l 64 217 l 76 650 q 268 815 140 803 m 382 -101 q 726 -12 650 -115 l 764 76 l 764 611 l 867 611 l 867 688 l 510 701 q 178 485 254 726 q 268 192 165 242 l 281 64 l 217 64 q 382 -101 192 -39 m 394 599 q 663 471 638 638 q 535 204 675 229 q 293 344 332 192 q 394 599 268 522 m 369 115 l 586 115 l 586 0 l 547 -12 l 369 0 l 369 115 z "},"h":{"ha":1021,"x_min":51,"x_max":994,"o":"m 51 1044 l 485 1044 l 485 828 q 854 764 815 828 l 892 688 l 892 306 l 994 306 l 994 0 l 51 0 l 51 306 l 153 306 l 153 739 l 51 739 l 51 1044 m 165 115 l 879 115 l 879 192 l 778 192 l 764 611 q 638 701 778 625 l 369 688 l 369 931 l 165 931 l 165 854 l 268 842 l 268 192 l 165 192 l 165 115 m 497 611 q 688 535 675 625 l 688 192 l 382 192 q 497 611 332 586 z "},"i":{"ha":607,"x_min":51,"x_max":574,"o":"m 140 1044 l 485 1044 l 485 306 l 574 306 l 574 0 l 51 0 l 51 306 l 153 306 l 153 497 l 51 497 l 51 803 l 140 803 l 140 1044 m 254 815 l 369 815 l 369 931 l 254 931 l 254 815 m 165 115 l 458 115 q 369 204 497 204 l 369 688 l 165 688 l 165 611 l 268 599 l 268 192 l 165 192 l 165 115 z "},"j":{"ha":563,"x_min":51,"x_max":522,"o":"m 178 1044 l 522 1044 l 522 -128 q 421 -217 497 -217 l 51 -217 l 51 101 q 192 165 192 76 l 192 497 l 76 497 l 76 803 l 178 803 l 178 1044 m 293 815 l 408 815 l 408 931 l 293 931 l 293 815 m 165 -101 q 408 -12 357 -115 l 408 688 l 192 688 l 192 611 l 306 599 l 306 25 l 281 -12 l 165 -12 l 165 -101 z "},"k":{"ha":960,"x_min":51,"x_max":931,"o":"m 51 1044 l 485 1044 l 485 803 l 918 803 l 918 497 q 778 421 803 535 l 854 306 l 931 293 l 931 0 l 51 0 l 51 306 l 153 306 l 153 739 l 51 739 l 51 1044 m 165 115 l 815 115 l 815 192 l 739 192 q 599 510 547 458 l 701 611 l 803 611 l 803 688 l 510 688 l 510 522 l 369 510 l 369 931 l 165 931 l 165 854 l 268 842 l 268 192 l 165 192 l 165 115 m 408 357 l 535 357 l 561 306 l 561 192 l 369 192 q 408 357 357 357 z "},"l":{"ha":631,"x_min":51,"x_max":586,"o":"m 51 1044 l 485 1044 l 485 306 l 586 306 l 586 0 l 51 0 l 51 306 l 153 306 l 153 739 l 51 739 l 51 1044 m 165 115 l 471 115 l 471 192 l 369 204 l 369 931 l 165 931 l 165 854 l 268 842 l 268 192 l 165 192 l 165 115 z "},"m":{"ha":1371,"x_min":51,"x_max":1325,"o":"m 1325 306 l 1325 0 l 51 0 l 51 306 l 153 318 l 153 497 l 51 497 l 51 803 l 382 815 q 1096 815 739 790 q 1236 306 1313 790 l 1325 306 m 165 115 l 1211 115 l 1211 192 l 1121 192 l 1108 599 q 981 701 1071 663 l 867 701 q 675 663 790 638 q 535 701 611 701 l 165 688 l 165 611 l 268 599 l 268 192 l 165 192 l 165 115 m 446 599 q 638 535 625 625 l 638 192 l 369 192 q 446 599 332 574 m 815 599 q 1019 522 1019 638 l 1019 192 l 739 192 q 815 599 701 574 z "},"n":{"ha":1021,"x_min":51,"x_max":981,"o":"m 382 815 q 854 751 828 842 l 879 688 l 879 306 l 981 306 l 981 0 l 51 0 l 51 306 l 153 318 l 153 497 l 51 497 l 51 803 l 382 815 m 165 115 l 867 115 l 867 192 l 764 192 l 751 611 q 625 701 764 625 l 165 688 l 165 611 l 268 599 l 268 192 l 165 192 l 165 115 m 446 599 q 663 535 663 625 l 663 192 l 369 192 q 446 599 332 574 z "},"o":{"ha":936,"x_min":51,"x_max":892,"o":"m 281 815 l 663 815 q 892 586 854 778 l 892 217 q 663 -12 854 25 l 281 -12 q 51 217 115 25 l 51 599 q 281 815 115 803 m 394 101 q 650 140 547 89 q 778 332 701 178 q 547 701 815 611 q 165 485 268 726 q 394 101 128 204 m 421 611 q 675 458 625 638 q 535 192 688 242 q 281 344 332 165 q 421 611 268 561 z "},"p":{"ha":1017,"x_min":51,"x_max":981,"o":"m 408 815 l 764 815 q 981 599 943 764 l 981 217 q 892 51 968 115 q 611 -12 828 -25 l 599 -204 l 51 -204 l 51 101 l 153 115 l 153 497 l 51 497 l 51 803 l 408 815 m 165 -89 l 485 -89 l 485 -12 l 369 -12 l 369 115 l 650 101 q 867 332 778 115 q 650 701 918 586 l 382 675 l 165 688 l 165 611 l 268 599 l 268 -12 l 165 -12 l 165 -89 m 510 611 q 764 458 714 638 q 625 192 778 242 q 369 344 369 192 q 510 611 357 561 z "},"q":{"ha":1013,"x_min":39,"x_max":981,"o":"m 268 815 l 981 803 l 981 497 l 879 497 l 879 101 l 981 101 l 981 -204 l 433 -204 l 433 -25 q 165 25 229 -25 q 51 217 39 140 l 51 599 q 268 815 101 778 m 382 101 l 663 115 l 663 -12 l 547 -12 l 547 -89 l 867 -89 l 867 -12 l 764 -12 l 764 611 l 867 611 l 867 688 l 510 701 q 165 485 242 726 q 192 242 153 344 q 382 101 254 153 m 369 599 q 663 458 625 638 q 522 192 675 217 q 268 344 318 165 q 369 599 242 522 z "},"r":{"ha":738,"x_min":51,"x_max":701,"o":"m 369 815 l 701 815 l 701 497 q 485 332 522 522 l 485 306 l 611 306 l 611 0 l 51 0 l 51 306 l 153 318 l 153 497 l 51 497 l 51 803 l 369 815 m 165 115 l 497 115 l 497 192 l 369 192 l 382 522 q 574 611 446 638 l 586 701 l 165 688 l 165 611 l 268 599 l 268 192 l 165 192 l 165 115 z "},"s":{"ha":813,"x_min":51,"x_max":778,"o":"m 217 815 l 764 803 l 778 446 l 778 115 q 625 -12 726 0 l 51 0 l 51 688 q 217 815 101 803 m 369 101 q 663 229 561 64 q 611 382 688 344 l 611 497 l 650 497 l 650 688 l 458 701 q 165 574 217 714 q 217 421 165 433 l 217 306 l 165 306 l 165 115 l 369 101 m 344 611 q 547 561 547 611 l 547 446 q 293 471 394 433 l 293 586 l 344 611 m 268 369 q 535 344 433 382 l 535 217 l 471 192 q 268 254 344 165 l 268 369 z "},"t":{"ha":715,"x_min":39,"x_max":739,"o":"m 663 803 l 663 497 l 485 497 l 485 408 l 688 394 q 586 -12 739 39 l 254 -12 l 165 51 l 153 485 l 39 497 l 39 803 l 140 803 l 153 931 l 217 956 l 485 956 l 485 803 l 663 803 m 369 101 q 574 229 561 89 l 574 293 q 471 229 471 318 l 369 229 l 369 611 l 547 611 l 547 688 l 369 688 l 369 842 l 268 815 l 268 688 l 153 688 l 153 611 l 268 611 l 281 165 l 369 101 z "},"u":{"ha":1004,"x_min":51,"x_max":981,"o":"m 51 803 l 879 803 l 879 306 l 981 306 l 981 0 l 650 -12 l 293 -12 q 165 89 204 13 l 153 485 l 51 497 l 51 803 m 165 688 l 165 611 l 268 611 l 281 204 q 408 101 318 140 l 867 115 l 867 192 l 764 204 l 764 688 l 547 688 l 547 611 l 663 611 q 574 204 701 254 l 421 204 l 369 268 l 369 688 l 165 688 z "},"v":{"ha":946,"x_min":25,"x_max":918,"o":"m 25 803 l 918 803 l 918 497 q 842 471 854 510 l 663 0 l 281 13 l 101 471 q 25 497 89 510 l 25 803 m 408 115 l 547 115 l 726 599 l 803 611 l 803 688 l 535 688 l 535 611 l 599 611 q 535 332 625 547 l 421 332 l 357 485 l 357 611 l 421 611 l 421 688 l 140 688 l 140 611 q 229 574 229 625 l 408 115 z "},"w":{"ha":1403,"x_min":51,"x_max":1364,"o":"m 51 803 l 1364 803 l 1364 497 q 1274 458 1274 510 l 1121 0 l 764 0 l 701 140 l 663 0 l 293 0 l 128 485 l 51 497 l 51 803 m 382 497 l 382 611 l 458 611 l 458 688 l 165 688 l 165 611 l 242 611 l 408 115 l 547 115 l 650 446 l 764 446 l 867 140 q 1019 128 918 89 l 1172 611 l 1249 611 l 1249 688 l 968 688 l 968 611 l 1044 599 q 1007 382 1057 535 l 892 382 q 764 688 803 663 l 638 688 l 547 382 l 421 382 l 382 497 z "},"x":{"ha":982,"x_min":51,"x_max":943,"o":"m 64 803 l 931 803 l 931 497 l 879 497 l 790 394 q 943 306 892 281 l 943 0 l 51 0 l 51 306 l 115 306 l 204 421 q 64 497 115 522 l 64 803 m 165 115 l 828 115 l 828 192 q 611 344 778 153 l 611 471 l 751 611 l 815 611 l 815 688 l 178 688 l 178 611 q 382 471 229 650 l 382 344 l 242 192 l 165 192 l 165 115 z "},"y":{"ha":986,"x_min":51,"x_max":943,"o":"m 51 803 l 943 803 l 943 497 q 867 458 879 510 l 611 -140 q 522 -217 574 -204 l 153 -217 l 153 89 q 281 140 268 64 l 128 485 l 51 510 l 51 803 m 268 -101 q 497 -25 433 -140 l 764 611 l 828 611 l 828 688 l 561 688 l 561 611 l 625 611 q 561 344 650 497 l 446 344 l 382 485 l 382 611 l 446 611 l 446 688 l 165 688 q 242 599 128 599 l 421 178 q 268 -25 471 -39 l 268 -101 z "},"z":{"ha":828,"x_min":51,"x_max":790,"o":"m 64 803 l 778 803 l 778 485 l 739 433 l 790 433 l 790 0 l 51 0 l 51 332 l 101 382 l 64 382 l 64 803 m 178 497 l 268 497 l 268 611 l 446 611 l 446 497 q 332 421 369 408 l 318 357 l 165 204 l 165 115 l 675 115 l 675 318 l 586 318 l 586 192 l 394 192 l 394 306 q 510 408 471 408 q 663 611 535 485 l 663 688 l 178 688 l 178 497 z "},"{":{"ha":0,"x_min":0,"x_max":0,"o":""},"|":{"ha":0,"x_min":0,"x_max":0,"o":""},"}":{"ha":0,"x_min":0,"x_max":0,"o":""},"~":{"ha":0,"x_min":0,"x_max":0,"o":""},"‚":{"ha":0,"x_min":0,"x_max":0,"o":""},"ƒ":{"ha":0,"x_min":0,"x_max":0,"o":""},"„":{"ha":0,"x_min":0,"x_max":0,"o":""},"…":{"ha":0,"x_min":0,"x_max":0,"o":""},"†":{"ha":0,"x_min":0,"x_max":0,"o":""},"‡":{"ha":0,"x_min":0,"x_max":0,"o":""},"ˆ":{"ha":0,"x_min":0,"x_max":0,"o":""},"‰":{"ha":0,"x_min":0,"x_max":0,"o":""},"Š":{"ha":0,"x_min":0,"x_max":0,"o":""},"‹":{"ha":0,"x_min":0,"x_max":0,"o":""},"Œ":{"ha":0,"x_min":0,"x_max":0,"o":""},"‘":{"ha":0,"x_min":0,"x_max":0,"o":""},"’":{"ha":0,"x_min":0,"x_max":0,"o":""},"“":{"ha":0,"x_min":0,"x_max":0,"o":""},"”":{"ha":0,"x_min":0,"x_max":0,"o":""},"•":{"ha":0,"x_min":0,"x_max":0,"o":""},"–":{"ha":0,"x_min":0,"x_max":0,"o":""},"—":{"ha":0,"x_min":0,"x_max":0,"o":""},"˜":{"ha":0,"x_min":0,"x_max":0,"o":""},"™":{"ha":0,"x_min":0,"x_max":0,"o":""},"š":{"ha":0,"x_min":0,"x_max":0,"o":""},"›":{"ha":0,"x_min":0,"x_max":0,"o":""},"œ":{"ha":0,"x_min":0,"x_max":0,"o":""},"Ÿ":{"ha":0,"x_min":0,"x_max":0,"o":""}," ":{"ha":0,"x_min":0,"x_max":0,"o":""},"¡":{"ha":0,"x_min":0,"x_max":0,"o":""},"¢":{"ha":744,"x_min":0,"x_max":0,"o":""},"£":{"ha":917,"x_min":64,"x_max":879,"o":"m 344 1057 l 714 1057 q 879 904 842 1032 l 879 638 l 663 638 l 663 433 l 867 433 l 867 0 l 64 0 l 64 318 l 165 318 l 165 394 l 64 394 l 64 714 l 165 726 q 344 1057 128 1019 m 178 115 l 751 115 l 751 318 l 663 318 l 663 204 l 394 204 l 394 510 l 547 510 l 547 599 l 394 599 q 485 854 357 778 q 663 751 611 904 l 764 751 q 599 943 764 867 q 357 892 433 968 l 306 842 q 281 599 281 803 l 178 599 l 178 510 l 281 510 l 281 204 l 178 204 l 178 115 z "},"¤":{"ha":0,"x_min":0,"x_max":0,"o":""},"¥":{"ha":0,"x_min":0,"x_max":0,"o":""},"¦":{"ha":0,"x_min":0,"x_max":0,"o":""},"§":{"ha":0,"x_min":0,"x_max":0,"o":""},"¨":{"ha":0,"x_min":0,"x_max":0,"o":""},"©":{"ha":0,"x_min":0,"x_max":0,"o":""},"ª":{"ha":0,"x_min":0,"x_max":0,"o":""},"«":{"ha":0,"x_min":0,"x_max":0,"o":""},"¬":{"ha":1667,"x_min":0,"x_max":0,"o":""},"­":{"ha":0,"x_min":0,"x_max":0,"o":""},"®":{"ha":0,"x_min":0,"x_max":0,"o":""},"¯":{"ha":0,"x_min":0,"x_max":0,"o":""},"°":{"ha":0,"x_min":0,"x_max":0,"o":""},"±":{"ha":0,"x_min":0,"x_max":0,"o":""},"²":{"ha":0,"x_min":0,"x_max":0,"o":""},"³":{"ha":0,"x_min":0,"x_max":0,"o":""},"´":{"ha":0,"x_min":0,"x_max":0,"o":""},"µ":{"ha":0,"x_min":0,"x_max":0,"o":""},"¶":{"ha":0,"x_min":0,"x_max":0,"o":""},"·":{"ha":0,"x_min":0,"x_max":0,"o":""},"¸":{"ha":0,"x_min":0,"x_max":0,"o":""},"¹":{"ha":0,"x_min":0,"x_max":0,"o":""},"º":{"ha":0,"x_min":0,"x_max":0,"o":""},"»":{"ha":0,"x_min":0,"x_max":0,"o":""},"¼":{"ha":0,"x_min":0,"x_max":0,"o":""},"½":{"ha":0,"x_min":0,"x_max":0,"o":""},"¾":{"ha":0,"x_min":0,"x_max":0,"o":""},"¿":{"ha":0,"x_min":0,"x_max":0,"o":""},"À":{"ha":0,"x_min":0,"x_max":0,"o":""},"Á":{"ha":0,"x_min":0,"x_max":0,"o":""},"Â":{"ha":0,"x_min":0,"x_max":0,"o":""},"Ã":{"ha":0,"x_min":0,"x_max":0,"o":""},"Ä":{"ha":0,"x_min":0,"x_max":0,"o":""},"Å":{"ha":0,"x_min":0,"x_max":0,"o":""},"Æ":{"ha":0,"x_min":0,"x_max":0,"o":""},"Ç":{"ha":0,"x_min":0,"x_max":0,"o":""},"È":{"ha":0,"x_min":0,"x_max":0,"o":""},"É":{"ha":0,"x_min":0,"x_max":0,"o":""},"Ê":{"ha":0,"x_min":0,"x_max":0,"o":""},"Ë":{"ha":0,"x_min":0,"x_max":0,"o":""},"Ì":{"ha":0,"x_min":0,"x_max":0,"o":""},"Í":{"ha":0,"x_min":0,"x_max":0,"o":""},"Î":{"ha":0,"x_min":0,"x_max":0,"o":""},"Ï":{"ha":0,"x_min":0,"x_max":0,"o":""},"Ð":{"ha":0,"x_min":0,"x_max":0,"o":""},"Ñ":{"ha":0,"x_min":0,"x_max":0,"o":""},"Ò":{"ha":0,"x_min":0,"x_max":0,"o":""},"Ó":{"ha":0,"x_min":0,"x_max":0,"o":""},"Ô":{"ha":0,"x_min":0,"x_max":0,"o":""},"Õ":{"ha":0,"x_min":0,"x_max":0,"o":""},"Ö":{"ha":0,"x_min":0,"x_max":0,"o":""},"×":{"ha":0,"x_min":0,"x_max":0,"o":""},"Ø":{"ha":0,"x_min":0,"x_max":0,"o":""},"Ù":{"ha":0,"x_min":0,"x_max":0,"o":""},"Ú":{"ha":0,"x_min":0,"x_max":0,"o":""},"Û":{"ha":0,"x_min":0,"x_max":0,"o":""},"Ü":{"ha":0,"x_min":0,"x_max":0,"o":""},"Ý":{"ha":0,"x_min":0,"x_max":0,"o":""},"Þ":{"ha":0,"x_min":0,"x_max":0,"o":""},"ß":{"ha":0,"x_min":0,"x_max":0,"o":""},"à":{"ha":0,"x_min":0,"x_max":0,"o":""},"á":{"ha":0,"x_min":0,"x_max":0,"o":""},"â":{"ha":0,"x_min":0,"x_max":0,"o":""},"ã":{"ha":0,"x_min":0,"x_max":0,"o":""},"ä":{"ha":0,"x_min":0,"x_max":0,"o":""},"å":{"ha":0,"x_min":0,"x_max":0,"o":""},"æ":{"ha":0,"x_min":0,"x_max":0,"o":""},"ç":{"ha":0,"x_min":0,"x_max":0,"o":""},"è":{"ha":0,"x_min":0,"x_max":0,"o":""},"é":{"ha":0,"x_min":0,"x_max":0,"o":""},"ê":{"ha":0,"x_min":0,"x_max":0,"o":""},"ë":{"ha":0,"x_min":0,"x_max":0,"o":""},"ì":{"ha":0,"x_min":0,"x_max":0,"o":""},"í":{"ha":0,"x_min":0,"x_max":0,"o":""},"î":{"ha":0,"x_min":0,"x_max":0,"o":""},"ï":{"ha":0,"x_min":0,"x_max":0,"o":""},"ð":{"ha":0,"x_min":0,"x_max":0,"o":""},"ñ":{"ha":0,"x_min":0,"x_max":0,"o":""},"ò":{"ha":0,"x_min":0,"x_max":0,"o":""},"ó":{"ha":0,"x_min":0,"x_max":0,"o":""},"ô":{"ha":0,"x_min":0,"x_max":0,"o":""},"õ":{"ha":0,"x_min":0,"x_max":0,"o":""},"ö":{"ha":0,"x_min":0,"x_max":0,"o":""},"÷":{"ha":0,"x_min":0,"x_max":0,"o":""},"ø":{"ha":0,"x_min":0,"x_max":0,"o":""},"ù":{"ha":0,"x_min":0,"x_max":0,"o":""},"ú":{"ha":0,"x_min":0,"x_max":0,"o":""},"û":{"ha":0,"x_min":0,"x_max":0,"o":""},"ü":{"ha":0,"x_min":0,"x_max":0,"o":""},"ý":{"ha":0,"x_min":0,"x_max":0,"o":""},"þ":{"ha":0,"x_min":0,"x_max":0,"o":""},"ÿ":{"ha":0,"x_min":0,"x_max":0,"o":""},"Ł":{"ha":0,"x_min":0,"x_max":0,"o":""},"ł":{"ha":0,"x_min":0,"x_max":0,"o":""},"⁄":{"ha":0,"x_min":0,"x_max":0,"o":""},"":{"ha":0,"x_min":0,"x_max":0,"o":""},"":{"ha":0,"x_min":0,"x_max":0,"o":""},"Ž":{"ha":0,"x_min":0,"x_max":0,"o":""},"ž":{"ha":0,"x_min":0,"x_max":0,"o":""}}}
